# xmcd
#
# Track frame offsets:
#	150
#	20750
#	40047
#	62697
#	79995
#	94355
#	115831
#	132811
#	146676
#	160346
#	174766
#	193968
#	209838
#	222323
#
# Disc length: 3135 seconds
#
# Revision: 3
# Processed by: cddbd v1.5.2PL0 Copyright (c) Steve Scherf et al.
# Submitted via: audiograbber 1.83.01
#
DISCID=d20c3d0e
DTITLE=Various Artist - Country Dancin'- Vol 8
DYEAR=1900
DGENRE=
TTITLE0=James Bonamy  - The Swing (Remix)
TTITLE1=Kimber Clayton  - Jose Cuervo (Remix)
TTITLE2=Big House - Cold Outside  (Remix)
TTITLE3=Lee Roy Parnell - Lucky Me, Lucky You
TTITLE4=Trace Adkins - I Left Something Turned On At Home (Remix)
TTITLE5=Jim Wise  - She Wants To Drive My Truck(The Beep Beep Song)(Remix)
TTITLE6=Kathy Mattea - 455 Rocket
TTITLE7=Jeff Moore  - Wrangler Butts (Remix)
TTITLE8=Clay Walker - Rumor Has It
TTITLE9=Terri Clark - Emotional Girl
TTITLE10=MC Potts - I'm So Sorry (Remix)
TTITLE11=Tracy Byrd - Don't Take Her She's All I Got
TTITLE12=Mark Chesnutt - It's A Little Too Late
TTITLE13=Wade Hayes - It's Over My Head
EXTD=
EXTT0=
EXTT1=
EXTT2=
EXTT3=
EXTT4=
EXTT5=
EXTT6=
EXTT7=
EXTT8=
EXTT9=
EXTT10=
EXTT11=
EXTT12=
EXTT13=
PLAYORDER=
